<?xml version="1.0" encoding="UTF-8"?><svg xmlns="http://www.w3.org/2000/svg" xmlns:xlink="http://www.w3.org/1999/xlink" width="48" zoomAndPan="magnify" viewBox="0 0 48 48" height="48" preserveAspectRatio="xMidYMid meet" version="1.0"><defs><clipPath id="clip-0"><path d="M 41 31 L 45.644531 31 L 45.644531 39 L 41 39 Z M 41 31 " clip-rule="nonzero"/></clipPath><clipPath id="clip-1"><path d="M 1.5625 30 L 6 30 L 6 38 L 1.5625 38 Z M 1.5625 30 " clip-rule="nonzero"/></clipPath><clipPath id="clip-2"><path d="M 1.5625 30 L 6 30 L 6 39 L 1.5625 39 Z M 1.5625 30 " clip-rule="nonzero"/></clipPath></defs><path fill="rgb(84.709167%, 83.139038%, 82.749939%)" d="M 33.671875 15.460938 C 33.671875 16.082031 33.613281 16.699219 33.492188 17.3125 C 33.371094 17.925781 33.191406 18.519531 32.953125 19.09375 C 32.714844 19.671875 32.421875 20.21875 32.078125 20.734375 C 31.730469 21.253906 31.339844 21.734375 30.898438 22.175781 C 30.460938 22.617188 29.980469 23.007812 29.464844 23.355469 C 28.949219 23.703125 28.402344 23.996094 27.828125 24.234375 C 27.253906 24.472656 26.660156 24.652344 26.050781 24.773438 C 25.441406 24.894531 24.824219 24.957031 24.203125 24.957031 C 23.582031 24.957031 22.964844 24.894531 22.355469 24.773438 C 21.746094 24.652344 21.152344 24.472656 20.578125 24.234375 C 20.003906 23.996094 19.457031 23.703125 18.941406 23.355469 C 18.421875 23.007812 17.945312 22.617188 17.503906 22.175781 C 17.066406 21.734375 16.671875 21.253906 16.328125 20.734375 C 15.980469 20.21875 15.691406 19.671875 15.453125 19.09375 C 15.214844 18.519531 15.035156 17.925781 14.914062 17.3125 C 14.792969 16.699219 14.730469 16.082031 14.730469 15.460938 C 14.730469 14.835938 14.792969 14.21875 14.914062 13.609375 C 15.035156 12.996094 15.214844 12.402344 15.453125 11.824219 C 15.691406 11.25 15.980469 10.703125 16.328125 10.183594 C 16.671875 9.664062 17.066406 9.1875 17.503906 8.746094 C 17.945312 8.304688 18.421875 7.910156 18.941406 7.566406 C 19.457031 7.21875 20.003906 6.925781 20.578125 6.6875 C 21.152344 6.449219 21.746094 6.269531 22.355469 6.148438 C 22.964844 6.023438 23.582031 5.964844 24.203125 5.964844 C 24.824219 5.964844 25.441406 6.023438 26.050781 6.148438 C 26.660156 6.269531 27.253906 6.449219 27.828125 6.6875 C 28.402344 6.925781 28.949219 7.21875 29.464844 7.566406 C 29.980469 7.910156 30.460938 8.304688 30.898438 8.746094 C 31.339844 9.1875 31.730469 9.664062 32.078125 10.183594 C 32.421875 10.703125 32.714844 11.25 32.953125 11.824219 C 33.191406 12.402344 33.371094 12.996094 33.492188 13.609375 C 33.613281 14.21875 33.671875 14.835938 33.671875 15.460938 Z M 33.671875 15.460938 " fill-opacity="1" fill-rule="nonzero"/><path fill="rgb(19.60907%, 6.269836%, 9.799194%)" d="M 24.203125 25.308594 C 18.785156 25.308594 14.378906 20.890625 14.378906 15.460938 C 14.378906 10.03125 18.785156 5.613281 24.203125 5.613281 C 29.617188 5.613281 34.023438 10.03125 34.023438 15.460938 C 34.023438 20.890625 29.617188 25.308594 24.203125 25.308594 Z M 24.203125 6.316406 C 19.171875 6.316406 15.082031 10.417969 15.082031 15.460938 C 15.082031 20.503906 19.171875 24.605469 24.203125 24.605469 C 29.230469 24.605469 33.324219 20.503906 33.324219 15.460938 C 33.324219 10.417969 29.230469 6.316406 24.203125 6.316406 Z M 24.203125 6.316406 " fill-opacity="1" fill-rule="nonzero"/><path fill="rgb(100%, 100%, 100%)" d="M 18.878906 22.25 C 18.800781 22.25 18.722656 22.226562 18.65625 22.171875 C 16.984375 20.777344 15.894531 18.828125 15.59375 16.683594 C 15.566406 16.492188 15.703125 16.3125 15.894531 16.285156 C 16.085938 16.257812 16.261719 16.390625 16.289062 16.585938 C 16.566406 18.558594 17.566406 20.347656 19.105469 21.628906 C 19.253906 21.753906 19.273438 21.972656 19.148438 22.125 C 19.082031 22.207031 18.980469 22.25 18.878906 22.25 Z M 18.878906 22.25 " fill-opacity="1" fill-rule="nonzero"/><path fill="rgb(94.898987%, 78.039551%, 5.879211%)" d="M 15.191406 14.792969 L 15.191406 14.152344 L 33.488281 14.152344 C 33.625 13.464844 33.695312 12.757812 33.695312 12.027344 C 33.695312 6.402344 29.40625 1.84375 24.109375 1.84375 C 18.816406 1.84375 14.523438 6.402344 14.523438 12.027344 C 14.523438 12.988281 14.652344 13.914062 14.886719 14.792969 Z M 15.191406 14.792969 " fill-opacity="1" fill-rule="nonzero"/><path fill="rgb(19.60907%, 6.269836%, 9.799194%)" d="M 15.191406 15.144531 L 14.886719 15.144531 C 14.726562 15.144531 14.589844 15.039062 14.546875 14.886719 C 14.300781 13.953125 14.175781 12.992188 14.175781 12.027344 C 14.175781 6.21875 18.632812 1.492188 24.109375 1.492188 C 29.589844 1.492188 34.046875 6.21875 34.046875 12.027344 C 34.046875 12.761719 33.976562 13.496094 33.832031 14.21875 C 33.796875 14.382812 33.652344 14.503906 33.488281 14.503906 L 15.542969 14.503906 L 15.542969 14.792969 C 15.542969 14.988281 15.382812 15.144531 15.191406 15.144531 Z M 24.109375 2.195312 C 19.019531 2.195312 14.875 6.605469 14.875 12.027344 C 14.875 12.636719 14.929688 13.238281 15.035156 13.835938 C 15.082031 13.8125 15.132812 13.796875 15.191406 13.796875 L 33.195312 13.796875 C 33.296875 13.210938 33.347656 12.617188 33.347656 12.027344 C 33.34375 6.605469 29.203125 2.195312 24.109375 2.195312 Z M 24.109375 2.195312 " fill-opacity="1" fill-rule="nonzero"/><path fill="rgb(94.898987%, 78.039551%, 5.879211%)" d="M 26.019531 12 C 26.019531 13.21875 25.035156 14.207031 23.820312 14.207031 L 23.773438 14.207031 C 22.558594 14.207031 21.570312 13.21875 21.570312 12 L 21.570312 2.621094 C 21.570312 1.398438 22.558594 0.410156 23.773438 0.410156 L 23.820312 0.410156 C 25.035156 0.410156 26.019531 1.398438 26.019531 2.621094 Z M 26.019531 12 " fill-opacity="1" fill-rule="nonzero"/><path fill="rgb(19.60907%, 6.269836%, 9.799194%)" d="M 23.820312 14.558594 L 23.773438 14.558594 C 22.367188 14.558594 21.222656 13.410156 21.222656 12 L 21.222656 2.621094 C 21.222656 1.207031 22.367188 0.0585938 23.773438 0.0585938 L 23.820312 0.0585938 C 25.226562 0.0585938 26.371094 1.207031 26.371094 2.621094 L 26.371094 12 C 26.371094 13.410156 25.226562 14.558594 23.820312 14.558594 Z M 23.773438 0.765625 C 22.753906 0.765625 21.921875 1.597656 21.921875 2.621094 L 21.921875 12 C 21.921875 13.023438 22.753906 13.855469 23.773438 13.855469 L 23.820312 13.855469 C 24.839844 13.855469 25.667969 13.023438 25.667969 12 L 25.667969 2.621094 C 25.667969 1.597656 24.839844 0.765625 23.820312 0.765625 Z M 23.773438 0.765625 " fill-opacity="1" fill-rule="nonzero"/><path fill="rgb(94.898987%, 78.039551%, 5.879211%)" d="M 36.546875 14.496094 C 36.546875 15.515625 35.609375 16.339844 34.449219 16.339844 L 13.957031 16.339844 C 12.796875 16.339844 11.859375 15.511719 11.859375 14.496094 C 11.859375 13.476562 12.796875 12.652344 13.957031 12.652344 L 34.449219 12.652344 C 35.609375 12.652344 36.546875 13.476562 36.546875 14.496094 Z M 36.546875 14.496094 " fill-opacity="1" fill-rule="nonzero"/><path fill="rgb(19.60907%, 6.269836%, 9.799194%)" d="M 34.449219 16.691406 L 13.957031 16.691406 C 12.605469 16.691406 11.507812 15.707031 11.507812 14.496094 C 11.507812 13.285156 12.605469 12.300781 13.957031 12.300781 L 34.449219 12.300781 C 35.800781 12.300781 36.898438 13.285156 36.898438 14.496094 C 36.898438 15.707031 35.800781 16.691406 34.449219 16.691406 Z M 13.957031 13.003906 C 12.992188 13.003906 12.207031 13.671875 12.207031 14.496094 C 12.207031 15.316406 12.992188 15.988281 13.957031 15.988281 L 34.449219 15.988281 C 35.414062 15.988281 36.195312 15.316406 36.195312 14.496094 C 36.195312 13.671875 35.414062 13.003906 34.449219 13.003906 Z M 13.957031 13.003906 " fill-opacity="1" fill-rule="nonzero"/><path fill="rgb(94.898987%, 78.039551%, 5.879211%)" d="M 41.398438 45.464844 C 41.398438 46.289062 40.730469 46.960938 39.902344 46.960938 L 7.925781 46.960938 C 7.101562 46.960938 6.433594 46.289062 6.433594 45.464844 L 3.195312 25.128906 C 3.195312 24.300781 3.867188 23.628906 4.691406 23.628906 L 43.140625 23.628906 C 43.964844 23.628906 44.632812 24.300781 44.632812 25.128906 Z M 41.398438 45.464844 " fill-opacity="1" fill-rule="nonzero"/><path fill="rgb(100%, 100%, 100%)" d="M 5.28125 29.09375 C 5.113281 29.09375 4.964844 28.972656 4.933594 28.796875 L 4.5 26.066406 C 4.496094 26.046875 4.496094 26.027344 4.496094 26.007812 C 4.496094 25.03125 5.289062 24.238281 6.265625 24.238281 L 9.046875 24.238281 C 9.238281 24.238281 9.394531 24.394531 9.394531 24.589844 C 9.394531 24.78125 9.238281 24.941406 9.046875 24.941406 L 6.265625 24.941406 C 5.683594 24.941406 5.210938 25.40625 5.199219 25.984375 L 5.628906 28.6875 C 5.660156 28.878906 5.527344 29.058594 5.335938 29.089844 C 5.320312 29.09375 5.300781 29.09375 5.28125 29.09375 Z M 5.28125 29.09375 " fill-opacity="1" fill-rule="nonzero"/><g clip-path="url(#clip-0)"><path fill="rgb(84.709167%, 83.139038%, 82.749939%)" d="M 45.296875 37.019531 C 45.296875 37.847656 44.628906 38.519531 43.804688 38.519531 L 43.472656 38.519531 C 42.648438 38.519531 41.976562 37.847656 41.976562 37.019531 L 41.976562 33.195312 C 41.976562 32.367188 42.644531 31.699219 43.472656 31.699219 L 43.804688 31.699219 C 44.628906 31.699219 45.296875 32.367188 45.296875 33.195312 Z M 45.296875 37.019531 " fill-opacity="1" fill-rule="nonzero"/><path fill="rgb(19.60907%, 6.269836%, 9.799194%)" d="M 43.804688 38.871094 L 43.472656 38.871094 C 42.453125 38.871094 41.628906 38.039062 41.628906 37.019531 L 41.628906 33.195312 C 41.628906 32.175781 42.453125 31.347656 43.472656 31.347656 L 43.804688 31.347656 C 44.820312 31.347656 45.648438 32.175781 45.648438 33.195312 L 45.648438 37.019531 C 45.648438 38.039062 44.820312 38.871094 43.804688 38.871094 Z M 43.472656 32.050781 C 42.839844 32.050781 42.328125 32.5625 42.328125 33.195312 L 42.328125 37.023438 C 42.328125 37.652344 42.839844 38.167969 43.472656 38.167969 L 43.804688 38.167969 C 44.433594 38.167969 44.945312 37.652344 44.945312 37.023438 L 44.945312 33.195312 C 44.945312 32.5625 44.433594 32.050781 43.804688 32.050781 Z M 43.472656 32.050781 " fill-opacity="1" fill-rule="nonzero"/></g><g clip-path="url(#clip-1)"><path fill="rgb(84.709167%, 83.139038%, 82.749939%)" d="M 5.230469 36.191406 C 5.230469 37.015625 4.5625 37.6875 3.734375 37.6875 L 3.402344 37.6875 C 2.578125 37.6875 1.910156 37.015625 1.910156 36.191406 L 1.910156 32.363281 C 1.910156 31.535156 2.578125 30.867188 3.402344 30.867188 L 3.734375 30.867188 C 4.5625 30.867188 5.230469 31.535156 5.230469 32.363281 Z M 5.230469 36.191406 " fill-opacity="1" fill-rule="nonzero"/></g><g clip-path="url(#clip-2)"><path fill="rgb(19.60907%, 6.269836%, 9.799194%)" d="M 3.734375 38.039062 L 3.40625 38.039062 C 2.386719 38.039062 1.558594 37.210938 1.558594 36.191406 L 1.558594 32.363281 C 1.558594 31.34375 2.386719 30.515625 3.40625 30.515625 L 3.734375 30.515625 C 4.753906 30.515625 5.582031 31.34375 5.582031 32.363281 L 5.582031 36.191406 C 5.582031 37.210938 4.753906 38.039062 3.734375 38.039062 Z M 3.40625 31.21875 C 2.773438 31.21875 2.261719 31.730469 2.261719 32.363281 L 2.261719 36.191406 C 2.261719 36.820312 2.773438 37.335938 3.40625 37.335938 L 3.734375 37.335938 C 4.367188 37.335938 4.878906 36.820312 4.878906 36.191406 L 4.878906 32.363281 C 4.878906 31.734375 4.367188 31.21875 3.734375 31.21875 Z M 3.40625 31.21875 " fill-opacity="1" fill-rule="nonzero"/></g></svg>